<?xml version="1.0" encoding="utf-8"?>
<svg viewBox="137.209 102.325 169.767 190.698" xmlns="http://www.w3.org/2000/svg">
  <defs>
    <clipPath id="clippath0" transform="">
      <path d="M 0 215.328 L 174.453 215.328 L 174.453 0 L 0 0 Z" style="fill: none; clip-rule: nonzero;"/>
    </clipPath>
  </defs>
  <g transform="matrix(1, 0, 0, -1, 136.610703, 298.361674)">
    <g transform="">
      <path d="M 0 215.328 L 174.453 215.328 L 174.453 0 L 0 0 Z" style="fill: none;"/>
    </g>
    <g style="clip-path: url(#clippath0);">
      <g transform="translate(60.3636 184.3889)">
        <path d="M 0 0 C -3.2 4.24 -8.19 6.972 -13.804 6.972 C -23.461 6.972 -31.29 -1.102 -31.29 -11.062 C -31.29 -16.519 -28.937 -21.406 -25.223 -24.713 C -20.891 -14.163 -11.797 -5.371 0 0" style="fill: rgb(44, 46, 53); fill-opacity: 1;"/>
      </g>
    </g>
    <g style="clip-path: url(#clippath0);">
      <g transform="translate(139.1703 160.2268)">
        <path d="M 0 0 C 3.371 3.287 5.479 7.938 5.479 13.101 C 5.479 23.06 -2.35 31.134 -12.008 31.134 C -17.499 31.134 -22.394 28.52 -25.6 24.437 C -13.714 19.185 -4.497 10.485 0 0" style="fill: rgb(44, 46, 53); fill-opacity: 1;"/>
      </g>
    </g>
    <g style="clip-path: url(#clippath0);">
      <g transform="translate(91.3557 121.748)">
        <path d="M 0 0 C 0.015 -2.21 -1.772 -4.02 -3.981 -4.035 L -4.839 -4.04 C -7.049 -4.055 -8.858 -2.269 -8.873 -0.059 L -8.878 0.72 C -7.557 1.247 -6.058 1.554 -4.46 1.565 C -2.852 1.575 -1.339 1.284 -0.005 0.768 Z M 7.919 10.512 C 6.987 10.505 6.241 9.746 6.247 8.819 C 6.264 6.319 4.244 4.274 1.748 4.258 C -0.208 4.246 -1.88 5.481 -2.523 7.212 C -2.616 7.612 -2.662 7.959 -2.67 8.267 L -2.691 9.028 C -0.004 10.146 3.765 13.116 3.75 15.502 C 3.737 17.441 -2.3 17.755 -4.531 17.74 C -6.768 17.725 -12.768 17.332 -12.756 15.394 C -12.74 13.035 -9.02 10.155 -6.325 9.043 L -6.305 8.306 C -6.304 8.001 -6.34 7.653 -6.424 7.253 C -7.03 5.475 -8.701 4.189 -10.676 4.177 C -13.174 4.16 -15.222 6.178 -15.238 8.677 C -15.244 9.604 -16.002 10.354 -16.931 10.347 C -17.861 10.341 -18.608 9.582 -18.602 8.655 C -18.574 4.466 -15.275 1.057 -11.145 0.829 L -11.139 -0.074 C -11.117 -3.533 -8.283 -6.329 -4.824 -6.306 L -3.966 -6.301 C -0.507 -6.279 2.289 -3.445 2.266 0.014 L 2.26 0.917 C 6.38 1.199 9.641 4.652 9.613 8.841 C 9.607 9.768 8.847 10.517 7.919 10.512" style="fill: rgb(44, 46, 53); fill-opacity: 1;"/>
      </g>
    </g>
    <g style="clip-path: url(#clippath0);">
      <g transform="translate(67.569 150.3338)">
        <path d="M 0 0 C -1.591 -2.044 -4.138 -2.722 -5.689 -1.515 C -7.239 -0.308 -7.206 2.327 -5.615 4.371 C -4.024 6.415 -1.477 7.093 0.073 5.886 C 1.624 4.679 1.591 2.044 0 0 M 1.733 10.674 C -2.423 13.91 -9.25 12.091 -13.515 6.613 C -17.779 1.134 -17.867 -5.93 -13.711 -9.165 C -9.554 -12.401 -2.728 -10.582 1.537 -5.104 C 5.801 0.375 5.889 7.439 1.733 10.674" style="fill: rgb(44, 46, 53); fill-opacity: 1;"/>
      </g>
    </g>
    <g style="clip-path: url(#clippath0);">
      <g transform="translate(111.8422 148.8186)">
        <path d="M 0 0 C -1.551 -1.207 -4.098 -0.529 -5.689 1.515 C -7.28 3.559 -7.312 6.195 -5.762 7.402 C -4.211 8.609 -1.664 7.93 -0.073 5.886 C 1.518 3.842 1.55 1.207 0 0 M 7.826 8.128 C 3.561 13.607 -3.265 15.425 -7.422 12.189 C -11.578 8.954 -11.49 1.89 -7.226 -3.589 C -2.961 -9.067 3.866 -10.885 8.022 -7.65 C 12.178 -4.414 12.091 2.65 7.826 8.128" style="fill: rgb(44, 46, 53); fill-opacity: 1;"/>
      </g>
    </g>
    <g style="clip-path: url(#clippath0);">
      <g transform="translate(106.2329 73.5365)">
        <path d="M 0 0 C 0 7.486 3.775 14.089 9.524 18.014 C 7.778 18.421 5.962 18.643 4.095 18.643 C -4.814 18.642 -12.932 13.74 -17.091 5.85 L -19.371 1.525 L -21.652 5.85 C -25.811 13.74 -33.929 18.642 -42.839 18.643 C -44.72 18.643 -46.55 18.417 -48.307 18.005 C -42.566 14.078 -38.797 7.48 -38.797 0 C -38.797 -12.04 -48.557 -21.8 -60.597 -21.8 C -60.897 -21.8 -61.195 -21.789 -61.493 -21.777 C -52.258 -37.814 -32.871 -54.514 -19.371 -64.167 C -5.872 -54.513 13.516 -37.813 22.75 -21.776 C 22.435 -21.789 22.119 -21.8 21.8 -21.8 C 9.76 -21.8 0 -12.04 0 0" style="fill-opacity: 1; fill: rgb(222, 75, 255);"/>
      </g>
    </g>
    <g style="clip-path: url(#clippath0);">
      <g transform="translate(131.4165 119.264)">
        <path d="M 0 0 C -10.006 -10.912 -26.053 -17.986 -44.145 -17.986 C -62.369 -17.986 -78.516 -10.808 -88.506 0.239 C -109.882 -8.204 -123.97 -22.627 -123.97 -39.005 C -123.97 -56.339 -108.187 -71.484 -84.685 -79.666 C -90.162 -72.644 -93.829 -66.06 -95.685 -59.949 C -92.877 -61.908 -89.464 -63.061 -85.781 -63.061 C -76.208 -63.061 -68.447 -55.3 -68.447 -45.727 C -68.447 -36.154 -76.208 -28.394 -85.781 -28.394 C -85.952 -28.394 -86.122 -28.402 -86.293 -28.407 C -81.296 -24.361 -74.939 -21.93 -68.022 -21.93 C -58.644 -21.931 -49.989 -26.398 -44.555 -33.823 C -39.122 -26.398 -30.466 -21.931 -21.089 -21.93 C -14.172 -21.93 -7.814 -24.361 -2.816 -28.408 C -3.005 -28.402 -3.193 -28.394 -3.384 -28.394 C -12.957 -28.394 -20.717 -36.154 -20.717 -45.727 C -20.717 -55.3 -12.957 -63.061 -3.384 -63.061 C 0.33 -63.061 3.769 -61.889 6.59 -59.9 C 4.739 -66.024 1.066 -72.625 -4.426 -79.666 C 19.077 -71.484 34.86 -56.339 34.86 -39.005 C 34.86 -22.781 21.038 -8.475 0 0" style="fill: rgb(44, 46, 53); fill-opacity: 1;"/>
      </g>
    </g>
  </g>
</svg>